<svg width="103" height="103" viewBox="0 0 103 103" fill="none" xmlns="http://www.w3.org/2000/svg">
<path d="M87.585 87.5868C107.515 67.6571 107.515 35.3448 87.585 15.4152C67.6553 -4.51448 35.343 -4.51448 15.4133 15.4152C-4.51631 35.3448 -4.51631 67.6571 15.4133 87.5868C35.343 107.516 67.6553 107.516 87.585 87.5868Z" fill="#003767"/>
<path d="M102.534 51.5H102.067C102.067 65.4659 96.4089 78.1048 87.2568 87.2568C78.1048 96.4089 65.4659 102.067 51.5 102.067C37.5341 102.067 24.8952 96.4089 15.7432 87.2568C6.59114 78.1048 0.932929 65.4659 0.932929 51.5C0.932929 37.5341 6.59114 24.8952 15.7432 15.7432C24.8952 6.59114 37.5341 0.932929 51.5 0.932929C65.4659 0.932929 78.1048 6.59114 87.2568 15.7432C96.4089 24.8952 102.067 37.5341 102.067 51.5H102.534H103C103 23.0573 79.9427 0 51.5 0C23.0573 0 0 23.0573 0 51.5C0 79.9427 23.0573 103 51.5 103C79.9427 103 103 79.9427 103 51.5H102.534Z" fill="#FFDD00"/>
<path d="M8.38475 53.9539C7.70837 53.9539 7.16028 53.3825 7.16028 52.6781C7.16028 51.9738 7.70837 51.4023 8.38475 51.4023C9.06112 51.4023 9.60921 51.9738 9.60921 52.6781C9.60921 53.3825 9.06112 53.9539 8.38475 53.9539Z" fill="#FFDD00"/>
<path d="M95.2241 53.9539C94.5477 53.9539 93.9996 53.3825 93.9996 52.6781C93.9996 51.9738 94.5477 51.4023 95.2241 51.4023C95.9005 51.4023 96.4509 51.9738 96.4509 52.6781C96.4509 53.3825 95.9005 53.9539 95.2241 53.9539Z" fill="#FFDD00"/>
<path d="M93.111 60.1085C93.2067 60.0456 93.3116 60.0246 93.4212 60.0456C93.5309 60.0666 93.6195 60.1249 93.6871 60.2182C93.7548 60.3114 93.7757 60.4257 93.7501 60.5587L93.6428 61.1254L92.8218 60.9668L92.9291 60.4001C92.9548 60.2695 93.0154 60.1715 93.111 60.1085ZM96.4089 59.3575L94.5431 59.9126C94.4871 59.712 94.3798 59.5301 94.2259 59.3645C94.0696 59.1989 93.8667 59.0916 93.6102 59.0427C93.2533 58.975 92.9221 59.038 92.6212 59.2362C92.318 59.4322 92.1245 59.7494 92.0428 60.1855L91.735 61.8018L95.7955 62.5855L95.9868 61.5826L94.4708 61.291L94.5361 60.9528L96.1874 60.5237L96.4089 59.3575ZM95.4643 64.0198L94.5967 63.761L94.0859 65.4892L93.3862 65.2793L93.8224 63.8029L92.9548 63.544L92.5186 65.0204L91.8562 64.8222L92.367 63.0939L91.4994 62.835L90.6994 65.5428L94.662 66.73L95.4643 64.0198ZM90.4382 66.3148L90.0627 67.3084L91.9775 68.7778L89.5729 68.6075L89.1997 69.5941L93.5472 69.79L93.8154 69.081L90.4382 66.3148ZM89.6265 71.6862C89.7548 71.7235 89.9717 71.8191 90.2796 71.9731C90.5921 72.1293 90.7997 72.2459 90.9023 72.3229C91.0073 72.3999 91.0866 72.4955 91.1402 72.6051C91.1939 72.7147 91.1822 72.85 91.1029 73.0109C91.0656 73.0879 91.0143 73.1509 90.949 73.1999C90.8837 73.2488 90.8137 73.2815 90.7391 73.2978C90.6644 73.3118 90.5665 73.3025 90.4405 73.2652C90.3169 73.2278 90.0977 73.1322 89.7875 72.9783C89.4773 72.822 89.2674 72.7054 89.1624 72.6261C89.0575 72.5468 88.9875 72.4722 88.9525 72.4022C88.9199 72.3299 88.9035 72.2576 88.9035 72.1783C88.9059 72.1013 88.9245 72.022 88.9642 71.9427C89.0038 71.8634 89.0528 71.7981 89.1158 71.7492C89.1764 71.7002 89.2417 71.6698 89.307 71.6582C89.391 71.6395 89.4983 71.6489 89.6265 71.6862ZM91.602 71.5626C91.4178 71.425 91.1286 71.257 90.7321 71.0588C90.3542 70.8699 90.051 70.7416 89.8178 70.6739C89.5846 70.6063 89.3024 70.6296 88.9642 70.7416C88.626 70.8535 88.3554 71.1194 88.1525 71.5346C88.0452 71.7538 87.9823 71.9637 87.9706 72.1666C87.9566 72.3696 87.9893 72.5888 88.0686 72.8243C88.1479 73.0622 88.2785 73.2488 88.465 73.3864C88.6516 73.524 88.9385 73.692 89.3327 73.8902C89.7105 74.0791 90.0137 74.2074 90.2469 74.2751C90.4802 74.3427 90.7624 74.3194 91.1006 74.2074C91.4388 74.0931 91.7093 73.8296 91.9122 73.4144C92.0195 73.1952 92.0801 72.9829 92.0941 72.7824C92.1081 72.5795 92.0801 72.3742 92.0102 72.1666C91.9216 71.9031 91.7839 71.7002 91.602 71.5626ZM90.044 76.0849C90.0044 75.7281 89.8248 75.4062 89.5029 75.117L88.9572 75.9986C89.0388 76.0966 89.0901 76.1969 89.1088 76.3042C89.1274 76.4091 89.0948 76.5281 89.0131 76.661C88.9199 76.8126 88.8102 76.8942 88.6913 76.9059C88.5723 76.9176 88.4511 76.8989 88.3321 76.8523C88.2132 76.8056 88.0033 76.6867 87.707 76.5001C87.4178 76.3182 87.2219 76.1806 87.1216 76.0826C87.019 75.987 86.9537 75.903 86.9257 75.8284C86.8977 75.7537 86.8884 75.6838 86.9001 75.6115C86.9094 75.5392 86.9397 75.4645 86.9887 75.3852C87.0727 75.25 87.1706 75.173 87.2849 75.152C87.3992 75.131 87.5298 75.145 87.6814 75.194L88.2271 74.3124C87.8027 74.1328 87.4132 74.1001 87.0633 74.2144C86.7135 74.3287 86.4313 74.5596 86.2167 74.9071C86.0931 75.1054 86.0161 75.3059 85.9811 75.5135C85.9461 75.7188 85.9578 75.9427 86.0138 76.1829C86.0698 76.4231 86.1817 76.6214 86.352 76.7776C86.5222 76.9316 86.7951 77.1275 87.1683 77.3631C87.5251 77.587 87.8167 77.7456 88.0406 77.8365C88.2645 77.9275 88.549 77.9321 88.8965 77.8505C89.244 77.7689 89.5379 77.5356 89.7781 77.1461C89.9927 76.794 90.0814 76.4418 90.044 76.0849ZM87.6208 79.6534C87.6208 79.2686 87.4622 78.9537 87.1426 78.7088C86.9817 78.5852 86.8301 78.4989 86.6808 78.4452C86.5339 78.3939 86.359 78.3799 86.1607 78.4079C85.9625 78.4359 85.7316 78.5805 85.4703 78.8394L85.1112 79.1939C85.0599 79.2476 85.0132 79.2849 84.9712 79.3059C84.9293 79.3269 84.8873 79.3409 84.8453 79.3455C84.8056 79.3502 84.7683 79.3502 84.738 79.3432C84.7077 79.3362 84.675 79.3199 84.64 79.2942C84.5561 79.2312 84.5118 79.1426 84.5024 79.0307C84.4931 78.9187 84.5397 78.7951 84.64 78.6621L84.6867 78.6015C84.7893 78.4662 84.8919 78.3659 84.9946 78.303C85.0972 78.24 85.2021 78.2004 85.3094 78.1864L85.1905 77.2861C84.9409 77.3187 84.7193 77.4027 84.5234 77.5333C84.3275 77.6639 84.1386 77.8528 83.952 78.0954C83.6698 78.4662 83.5439 78.8347 83.5718 79.1986C83.5998 79.5648 83.7678 79.8633 84.071 80.0989C84.3555 80.3181 84.6307 80.4137 84.8966 80.3811C85.1625 80.3484 85.4284 80.2015 85.6943 79.9426L86.0534 79.5858C86.1024 79.5344 86.1467 79.4995 86.1887 79.4761C86.2307 79.4551 86.2797 79.4388 86.338 79.4341C86.3963 79.4271 86.4662 79.4575 86.5502 79.5204C86.7461 79.672 86.7251 79.9053 86.4849 80.2201C86.373 80.3694 86.247 80.493 86.1094 80.5956C85.9718 80.6983 85.8342 80.7589 85.6919 80.7776L85.8132 81.6942C86.0977 81.6592 86.3473 81.5659 86.5619 81.4166C86.7765 81.265 86.9887 81.0528 87.1963 80.7776C87.4808 80.4114 87.6208 80.0382 87.6208 79.6534ZM85.4354 82.844L82.3427 80.0825L81.6687 80.8452L84.7613 83.6067L85.4354 82.844ZM81.1509 83.3571C81.2372 83.4271 81.3958 83.588 81.6267 83.8352C81.8599 84.0871 82.0069 84.2551 82.0698 84.3437C82.1328 84.4323 82.1701 84.5186 82.1818 84.6026C82.1934 84.6865 82.1864 84.7705 82.1561 84.8545C82.1281 84.9384 82.0698 85.0201 81.9812 85.1017L81.6547 85.4072L80.071 83.6953L80.3975 83.3898C80.4885 83.3058 80.5748 83.2522 80.6564 83.2288C80.7381 83.2055 80.8244 83.2055 80.913 83.2288C80.9853 83.2428 81.0669 83.2871 81.1509 83.3571ZM83.0541 83.9892C82.9561 83.8119 82.7975 83.6043 82.5783 83.3688L82.3684 83.1425L82.1655 82.9233C81.8926 82.6294 81.6687 82.4405 81.4914 82.3542C81.3141 82.2679 81.1252 82.2213 80.9247 82.2143C80.7241 82.2073 80.5352 82.2423 80.3509 82.3239C80.169 82.4032 79.9941 82.5221 79.8285 82.6784L78.7089 83.7279L81.5264 86.774L82.6459 85.7244C82.8068 85.5728 82.9351 85.4072 83.0307 85.223C83.1264 85.041 83.1777 84.8521 83.1847 84.6609C83.1963 84.388 83.152 84.1664 83.0541 83.9892ZM76.3953 89.8596C76.4606 89.5448 76.4046 89.2509 76.225 88.978C76.0478 88.7051 75.8029 88.5372 75.488 88.4719C75.1755 88.4066 74.8839 88.4649 74.6134 88.6422C74.3428 88.8194 74.1749 89.069 74.1119 89.3838C74.0466 89.6987 74.1026 89.9926 74.2822 90.2631C74.4595 90.536 74.7043 90.7039 75.0192 90.7692C75.3317 90.8345 75.6233 90.7762 75.8938 90.599C76.1644 90.4194 76.33 90.1745 76.3953 89.8596ZM70.2799 94.0671L69.9371 93.2252L68.2788 93.9062L68.0013 93.2252L69.4193 92.6421L69.0765 91.8001L67.6584 92.3832L67.3972 91.7395L69.0555 91.0584L68.7126 90.2165L66.1144 91.2847L67.6794 95.1353L70.2799 94.0671ZM65.9185 95.4245C66.1167 95.126 66.1844 94.7622 66.1237 94.333L65.1418 94.6549C65.1418 94.7832 65.1162 94.8928 65.0625 94.9861C65.0089 95.0794 64.9086 95.1493 64.7617 95.196C64.5914 95.252 64.4585 95.245 64.3582 95.175C64.2579 95.105 64.1786 95.0141 64.1179 94.9021C64.0573 94.7901 63.9733 94.5639 63.8637 94.2281C63.7588 93.9015 63.6981 93.6706 63.6818 93.5307C63.6655 93.3908 63.6701 93.2835 63.6935 93.2112C63.7191 93.1389 63.7588 93.0759 63.8124 93.0292C63.8661 92.9803 63.936 92.943 64.0247 92.9126C64.1763 92.8637 64.2999 92.8683 64.4002 92.9266C64.5004 92.9849 64.5914 93.0806 64.6754 93.2158L65.6573 92.894C65.4474 92.4812 65.1698 92.2036 64.8293 92.066C64.4888 91.9284 64.1249 91.9214 63.7378 92.0473C63.5162 92.1196 63.3273 92.2223 63.171 92.3575C63.0148 92.4928 62.8795 92.6701 62.7675 92.8916C62.6556 93.1132 62.6159 93.3371 62.6462 93.5657C62.6766 93.7943 62.7605 94.1208 62.8981 94.5429C63.0287 94.9464 63.15 95.2543 63.2643 95.4689C63.3786 95.6834 63.5932 95.8723 63.9104 96.0333C64.2276 96.1965 64.6031 96.2059 65.0369 96.0636C65.4264 95.9353 65.7202 95.7231 65.9185 95.4245ZM62.0888 96.8636L61.3098 92.7774L60.3139 92.9686L60.7034 95.0211L59.0148 93.2205L58.1425 93.3884L58.9215 97.4747L59.9174 97.2834L59.5279 95.231L61.2165 97.0315L62.0888 96.8636ZM57.4708 97.6869L57.3915 96.7796L55.6073 96.9382L55.542 96.2059L57.0673 96.0706L56.988 95.1633L55.4627 95.2986L55.4021 94.6059L57.1863 94.4473L57.107 93.54L54.3105 93.7896L54.6767 97.9341L57.4708 97.6869ZM53.1374 97.9994L53.0861 93.8386L52.0715 93.8526L52.1228 98.0134L53.1374 97.9994ZM49.7462 94.8485C49.8208 94.9371 49.8535 95.0374 49.8465 95.1493C49.8395 95.2613 49.7928 95.3569 49.7089 95.4362C49.6249 95.5155 49.5153 95.5505 49.38 95.5412L48.8062 95.5038L48.8599 94.6642L49.4336 94.7015C49.5689 94.7109 49.6715 94.7598 49.7462 94.8485ZM50.9007 98.0484L50.1193 96.2572C50.3106 96.1755 50.4785 96.0473 50.6208 95.87C50.7631 95.6951 50.8424 95.4759 50.8587 95.217C50.882 94.8508 50.7771 94.5313 50.5438 94.2537C50.3106 93.9762 49.9747 93.8222 49.5363 93.7943L47.9036 93.6893L47.6424 97.8408L48.6546 97.9061L48.7526 96.3575L49.0931 96.3785L49.7252 97.9738L50.9007 98.0484ZM46.229 97.6752L46.355 96.7726L44.5801 96.5231L44.6827 95.7954L46.1987 96.01L46.3247 95.1073L44.8086 94.8928L44.9043 94.2047L46.6792 94.4543L46.8051 93.5517L44.025 93.1599L43.4512 97.2811L46.229 97.6752ZM41.779 93.6823C41.8373 93.7826 41.8513 93.8875 41.8256 93.9972C41.8 94.1068 41.737 94.1931 41.6414 94.2561C41.5457 94.319 41.4314 94.333 41.2985 94.3004L40.7411 94.1628L40.9393 93.3464L41.4967 93.4841C41.6274 93.5144 41.723 93.582 41.779 93.6823ZM42.2244 95.0607C42.53 94.8648 42.7259 94.5896 42.8122 94.2374C42.8985 93.8829 42.8518 93.547 42.6699 93.2322C42.4903 92.9173 42.1848 92.7074 41.758 92.6024L40.1697 92.2129L39.1901 96.2549L40.1767 96.4974L40.5265 95.0514L41.1282 95.1983C41.5527 95.3033 41.9166 95.2566 42.2244 95.0607ZM38.0846 95.8933L37.5738 93.4514L39.3813 91.9424L38.2921 91.5576L37.3172 92.5185L37.154 91.1564L36.0648 90.7716L36.5336 93.0876L34.6141 94.6689L35.7079 95.056L36.7691 94.0765L36.9884 95.5085L38.0846 95.8933ZM33.6765 94.2047L34.059 93.3791L32.4357 92.6164L32.7435 91.9494L34.1313 92.6001L34.5138 91.7745L33.126 91.1237L33.4176 90.494L35.0409 91.2567L35.4234 90.431L32.8811 89.2369L31.1319 93.0059L33.6765 94.2047ZM26.381 89.2952C26.6958 89.2462 26.9501 89.09 27.1413 88.8264C27.3326 88.5629 27.4025 88.2736 27.3535 87.9541C27.3046 87.6369 27.1483 87.3804 26.8871 87.1891C26.6259 86.9979 26.3367 86.9256 26.0218 86.9769C25.7069 87.0259 25.4527 87.1821 25.2615 87.4457C25.0702 87.7092 25.0002 87.9984 25.0492 88.318C25.0982 88.6352 25.2545 88.8917 25.5157 89.083C25.7769 89.2742 26.0661 89.3465 26.381 89.2952ZM20.3006 85.1017L20.9467 84.465L19.6942 83.1752L20.2166 82.6621L21.2848 83.7653L21.9309 83.1285L20.8627 82.0254L21.3571 81.5402L22.6096 82.83L23.2557 82.1933L21.2942 80.1735L18.3368 83.0796L20.3006 85.1017ZM19.0878 79.1053C19.0738 79.2196 19.0225 79.3129 18.9339 79.3828C18.8452 79.4528 18.7449 79.4831 18.6307 79.4738C18.5164 79.4645 18.4161 79.4062 18.3321 79.3012L17.9729 78.8511L18.6237 78.324L18.9828 78.7741C19.0691 78.8814 19.1041 78.991 19.0878 79.1053ZM17.5228 82.1233L18.3088 80.3321C18.4977 80.4184 18.7053 80.4557 18.9292 80.444C19.1554 80.43 19.3677 80.3438 19.5706 80.1805C19.8528 79.9519 20.0184 79.6557 20.065 79.2965C20.1117 78.9374 19.9974 78.5829 19.7199 78.2377L18.6936 76.9549L15.4727 79.5648L16.1094 80.3601L17.3106 79.3875L17.5251 79.6557L16.7811 81.202L17.5228 82.1233ZM16.415 75.9427C16.317 76.036 16.1258 76.1759 15.8389 76.3671C15.5473 76.5607 15.3444 76.682 15.2231 76.7333C15.1042 76.7846 14.9829 76.8056 14.8616 76.7963C14.7404 76.787 14.6307 76.71 14.5328 76.5607C14.4861 76.4884 14.4581 76.4138 14.4488 76.3298C14.4395 76.2482 14.4465 76.1712 14.4721 76.0989C14.4955 76.0266 14.5561 75.945 14.6494 75.8564C14.7427 75.7654 14.9363 75.6255 15.2255 75.4319C15.517 75.2383 15.7223 75.117 15.8435 75.0657C15.9648 75.0144 16.0651 74.9911 16.1421 74.9981C16.219 75.0051 16.2913 75.0284 16.359 75.068C16.4243 75.1077 16.4826 75.166 16.5316 75.2406C16.5806 75.3153 16.6109 75.3922 16.6225 75.4692C16.6342 75.5485 16.6272 75.6185 16.6039 75.6791C16.5736 75.7631 16.5106 75.8494 16.415 75.9427ZM15.5263 77.7222C15.7386 77.6313 16.0278 77.4633 16.3963 77.2208C16.7485 76.9875 17.012 76.787 17.187 76.619C17.3619 76.4511 17.4855 76.1922 17.5578 75.8424C17.6301 75.4925 17.5391 75.124 17.2849 74.7369C17.1496 74.5316 17.0004 74.373 16.8348 74.2611C16.6692 74.1468 16.4639 74.0651 16.219 74.0162C15.9741 73.9649 15.7479 73.9858 15.5357 74.0768C15.3258 74.1678 15.0342 74.3357 14.6657 74.5783C14.3135 74.8115 14.05 75.0121 13.8751 75.18C13.7001 75.3479 13.5765 75.6068 13.5042 75.9567C13.4319 76.3065 13.5229 76.675 13.7771 77.0622C13.91 77.2674 14.0616 77.426 14.2272 77.538C14.3928 77.6499 14.5841 77.7292 14.7987 77.7735C15.0739 77.8295 15.3164 77.8132 15.5263 77.7222ZM12.38 74.6552L13.18 74.2307L12.3707 72.6867L15.2278 71.1707L14.7543 70.2681L11.0973 72.2086L12.38 74.6552ZM12.9981 68.7451C12.9515 68.8501 12.8768 68.9247 12.7719 68.9667C12.6692 69.0087 12.562 69.0087 12.457 68.9667C12.3497 68.9247 12.2704 68.8407 12.2191 68.7148L12.0022 68.1807L12.7742 67.8635L12.9911 68.3976C13.0448 68.5259 13.0471 68.6402 12.9981 68.7451ZM12.1491 69.9183C12.4873 70.0512 12.8232 70.0512 13.1567 69.9136C13.4926 69.776 13.7351 69.5404 13.8821 69.2092C14.029 68.8781 14.0197 68.5072 13.8541 68.0967L13.236 66.5737L9.40866 68.148L9.7935 69.0926L11.1626 68.5305L11.3981 69.109C11.5591 69.5125 11.811 69.783 12.1491 69.9183ZM9.03782 67.0379L10.7031 65.1883L12.9771 65.7737L12.6483 64.6612L11.3025 64.4303L12.3031 63.4974L11.9742 62.3849L10.3859 64.1271L7.98828 63.4927L8.31947 64.6122L9.73052 64.9015L8.70663 65.9207L9.03782 67.0379ZM7.79003 62.4572L8.67865 62.2869L8.34279 60.5167L9.06115 60.3791L9.34802 61.8928L10.2366 61.7202L9.94976 60.2065L10.6261 60.0759L10.9643 61.8461L11.8529 61.6735L11.3258 58.9004L7.26526 59.6841L7.79003 62.4572Z" fill="#FFDD00"/>
<path d="M93.0271 46.1616L92.374 43.1459L97.9483 41.9261L97.5658 40.1605L90.4289 41.7232L91.4644 46.5044L93.0271 46.1616ZM91.1612 38.1011C90.8906 38.0218 90.6971 37.8328 90.5851 37.5366C90.4732 37.2404 90.4918 36.9722 90.6434 36.7297C90.7927 36.4871 91.3151 36.1956 92.2107 35.8527C93.1133 35.5075 93.7034 35.3769 93.9833 35.4609C94.2399 35.5402 94.4241 35.7268 94.5361 36.023C94.648 36.3192 94.634 36.5827 94.4941 36.8113C94.3402 37.0608 93.813 37.3594 92.9104 37.7046C92.0172 38.0497 91.4341 38.1827 91.1612 38.1011ZM94.9885 38.7588C95.4597 38.4766 95.7932 38.1127 95.9914 37.6672C96.3086 36.9559 96.3226 36.2189 96.0334 35.4539C95.7442 34.6889 95.2474 34.1454 94.5407 33.8259C94.0999 33.6277 93.6101 33.5787 93.0714 33.6813C92.7705 33.7373 92.2714 33.8982 91.574 34.1664C90.8767 34.4323 90.3985 34.6469 90.135 34.8055C89.6638 35.0877 89.328 35.4515 89.1321 35.897C88.8149 36.6084 88.8009 37.3454 89.0901 38.1104C89.3793 38.8754 89.8761 39.4188 90.5828 39.7383C91.0236 39.9366 91.5134 39.9856 92.0521 39.883C92.353 39.827 92.8521 39.666 93.5495 39.3978C94.2469 39.1296 94.7273 38.9174 94.9885 38.7588ZM88.3997 32.0557C88.1175 32.023 87.8983 31.8714 87.7374 31.5985C87.5764 31.3257 87.5508 31.0574 87.6581 30.7939C87.7653 30.5303 88.2318 30.1525 89.0551 29.6627C89.8854 29.1683 90.4452 28.9397 90.7367 28.9747C91.0026 29.0097 91.2148 29.1613 91.3758 29.4342C91.5367 29.707 91.567 29.9683 91.4667 30.2201C91.3571 30.493 90.8883 30.8779 90.058 31.37C89.2347 31.8598 88.6819 32.0883 88.3997 32.0557ZM92.2831 32.0487C92.7005 31.6895 92.9688 31.2744 93.0877 30.8032C93.2813 30.0499 93.1693 29.3199 92.7542 28.6155C92.339 27.9111 91.7583 27.461 91.0096 27.2674C90.5408 27.1461 90.051 27.1835 89.5356 27.377C89.2487 27.4843 88.7846 27.7292 88.1432 28.1094C87.5018 28.4896 87.0656 28.7834 86.8324 28.984C86.4149 29.3432 86.1467 29.7583 86.0278 30.2295C85.8342 30.9828 85.9461 31.7128 86.3613 32.4172C86.7764 33.1216 87.3572 33.5717 88.1059 33.7653C88.5747 33.8866 89.0644 33.8492 89.5799 33.6557C89.8668 33.5484 90.3309 33.3058 90.9723 32.9233C91.6137 32.5408 92.0498 32.2493 92.2831 32.0487ZM90.0533 24.499L88.9268 23.0902L86.7368 24.8651L85.5403 23.3701L87.7304 21.5952L86.6038 20.1888L80.9153 24.7998L82.0418 26.2062L84.2948 24.38L85.4913 25.875L83.2383 27.7012L84.3648 29.1076L90.0533 24.499ZM80.7054 21.9964C80.3276 22.0197 80.0337 21.9334 79.8191 21.7422C79.5882 21.5369 79.4833 21.3037 79.5019 21.0448C79.5229 20.7416 79.8541 20.2261 80.4932 19.5008C81.1322 18.7754 81.601 18.3836 81.8996 18.3276C82.1538 18.2787 82.3963 18.3556 82.6249 18.5609C82.8395 18.7521 82.9584 19.039 82.9818 19.4168L84.661 19.3165C84.6144 18.5492 84.2902 17.8962 83.6861 17.3574C83.082 16.8186 82.394 16.5714 81.622 16.618C81.1392 16.646 80.6821 16.8326 80.2529 17.1755C80.0127 17.3644 79.6442 17.7399 79.1497 18.302C78.6553 18.8641 78.3288 19.2746 78.1702 19.5381C77.8833 20.0092 77.7527 20.4874 77.783 20.9725C77.8297 21.7492 78.1538 22.4069 78.7579 22.948C79.362 23.4867 80.0454 23.734 80.808 23.6873L80.7054 21.9964ZM77.818 17.0962C77.7387 16.6227 77.4448 16.1609 76.9387 15.7084L76.267 15.1184C76.0967 14.9644 75.9964 14.8175 75.9685 14.6729C75.9405 14.5283 75.9615 14.4023 76.0314 14.2927C76.1294 14.1434 76.2717 14.0525 76.4582 14.0175C76.6751 13.9872 76.9014 14.0525 77.1416 14.2111C77.6734 14.5633 77.9766 14.9411 78.0559 15.3493L79.6185 15.0251C79.4529 14.2158 78.9282 13.5161 78.0419 12.9306C77.3608 12.4805 76.7031 12.3032 76.0617 12.3989C75.4204 12.4945 74.9166 12.8257 74.5434 13.3948C73.8694 14.4233 74.0303 15.3796 75.0262 16.2612L75.6956 16.8536C76.0104 17.1358 76.0687 17.4274 75.8752 17.7259C75.6349 18.0944 75.2221 18.0851 74.6414 17.6979C74.0186 17.2851 73.6595 16.8396 73.5615 16.3638L71.9709 16.695C72.1364 17.579 72.7312 18.3603 73.7551 19.039C74.4291 19.4845 75.0938 19.685 75.7469 19.6384C76.4396 19.5941 76.983 19.2699 77.3795 18.6635C77.748 18.0921 77.895 17.5696 77.818 17.0962ZM69.9114 8.61118L67.9126 10.6753L67.7727 7.79487L65.9395 7.09517L66.4619 11.9557L65.4054 14.7545L67.0823 15.3959L68.1388 12.5971L71.74 9.31321L69.9114 8.61118ZM60.7104 10.7103L61.7669 8.93304L61.9535 10.9808L60.7104 10.7103ZM62.9868 6.34883L61.634 6.05263L57.4848 12.6671L59.3203 13.0682L59.9034 12.0747L62.0981 12.5551L62.1984 13.6956L64.034 14.0968L62.9868 6.34883ZM55.4953 10.0666C55.4557 10.2438 55.3974 10.3837 55.3134 10.4887C55.1128 10.7523 54.8166 10.8712 54.4271 10.8455L53.6388 10.7942L53.8977 6.67302L54.686 6.72433C55.0755 6.74999 55.3531 6.90392 55.521 7.1908C55.6376 7.39138 55.6679 7.94414 55.6119 8.85141C55.5746 9.44382 55.535 9.84965 55.4953 10.0666ZM57.4428 7.37738C57.3868 6.84328 57.1839 6.37449 56.8318 5.97333C56.3839 5.46255 55.7449 5.18034 54.9123 5.12669L52.2091 4.9541L51.7473 12.2916L54.4505 12.4642C55.2831 12.5178 55.9548 12.3196 56.4609 11.8694C56.8597 11.5149 57.121 11.0764 57.2422 10.554C57.2982 10.3231 57.3519 9.796 57.4032 8.97036C57.4568 8.14472 57.4685 7.61295 57.4428 7.37738ZM45.4407 8.35463C45.3241 8.52489 45.1492 8.62751 44.9206 8.66716L43.9177 8.83509L43.6751 7.36805L44.678 7.20013C44.9066 7.16281 45.1048 7.20479 45.2704 7.32607C45.436 7.44969 45.5363 7.60828 45.5666 7.8042C45.6016 8.00245 45.5573 8.18437 45.4407 8.35463ZM46.4483 6.00598C45.9095 5.60015 45.2588 5.46022 44.4984 5.58849L41.6413 6.06429L42.8355 13.3155L44.6057 13.0193L44.1789 10.4327L45.2611 10.2531C46.0238 10.1272 46.5952 9.78201 46.973 9.22458C47.3205 8.7208 47.4418 8.14938 47.3345 7.51033C47.2342 6.87127 46.938 6.36982 46.4483 6.00598ZM39.281 12.3989C39.1877 12.6671 38.9918 12.8513 38.6933 12.9493C38.3947 13.0473 38.1289 13.0146 37.8956 12.8513C37.6624 12.6881 37.3988 12.1493 37.1026 11.2327C36.8041 10.3091 36.7038 9.70971 36.8018 9.43216C36.8927 9.17794 37.0863 9.00301 37.3872 8.90505C37.6857 8.8071 37.9469 8.83508 38.1685 8.98669C38.4087 9.15461 38.6793 9.69804 38.9778 10.6216C39.2717 11.5359 39.3743 12.1283 39.281 12.3989ZM40.1207 8.58553C39.8618 8.09807 39.5189 7.74356 39.0874 7.52199C38.3971 7.16747 37.6671 7.1185 36.8927 7.37039C36.1184 7.62228 35.5563 8.09574 35.2041 8.79077C34.9849 9.22458 34.9126 9.71437 34.9896 10.2625C35.0292 10.568 35.1668 11.0764 35.3954 11.7901C35.6263 12.5038 35.8129 12.9959 35.9575 13.2665C36.2164 13.754 36.5592 14.1085 36.9907 14.33C37.6811 14.6845 38.4111 14.7335 39.1854 14.4816C39.9597 14.2297 40.5218 13.7563 40.874 13.0613C41.0932 12.6274 41.1655 12.1377 41.0909 11.5896C41.0489 11.284 40.9137 10.7756 40.6851 10.0619C40.4542 9.3482 40.2653 8.85608 40.1207 8.58553ZM33.3569 8.68115L28.5337 11.0928L29.245 12.5341L30.852 11.7295L33.3896 16.8699L34.9966 16.0653L32.459 10.9248L34.066 10.1202L33.3569 8.68115ZM26.9547 12.0257L25.4783 13.0543L27.5728 16.0933L23.5588 14.3977L22.2691 15.2979L26.4299 21.3387L27.9063 20.3101L25.8142 17.2734L29.8281 18.969L31.1179 18.0687L26.9547 12.0257ZM24.4031 21.0238L22.1338 23.2535L21.2382 22.3299L23.1763 20.4267L22.0592 19.2746L20.121 21.1777L19.2674 20.2984L21.5344 18.0687L20.4172 16.9166L16.8651 20.4081L21.9682 25.6675L25.5203 22.176L24.4031 21.0238ZM20.1303 25.3643L18.4207 27.6103L16.7111 22.7264L15.6033 21.8728L12.6646 25.7304L13.9357 26.71L15.5636 24.5713L17.2802 29.4458L18.3881 30.2994L21.4038 26.3415L20.1303 25.3643ZM16.4919 30.3391L15.1205 32.809L12.7299 28.2237L11.5124 27.538L9.15442 31.7828L10.5515 32.5688L11.8576 30.2178L14.2529 34.7938L15.4704 35.4795L17.889 31.1274L16.4919 30.3391ZM8.27047 33.8866L7.59177 35.5588L14.3532 38.339L15.0319 36.6667L8.27047 33.8866ZM6.66817 37.7699L6.25068 39.4958L8.99116 41.8701L5.47168 42.7051L5.0542 44.431L12.1515 46.1732L12.5759 44.417L9.17774 43.582L11.1765 42.9989L11.4494 41.8748L9.94041 40.431L13.3386 41.266L13.7654 39.5098L6.66817 37.7699Z" fill="#FFDD00"/>
<path d="M30.4975 77.0303C31.8013 76.9043 32.9861 76.2443 34.2199 75.8548C35.2088 75.5423 36.1977 75.288 37.2402 75.253C37.2892 75.2507 37.4968 75.2321 37.6484 75.2647C38.7586 75.3323 39.7988 75.6495 40.8413 76.0437C41.9912 76.4775 43.3672 77.1539 44.629 77.0303C47.0313 76.797 49.0931 75.1598 51.5863 75.2414C52.7712 75.281 53.8697 75.6169 54.9729 76.0344C56.1227 76.4682 57.4988 77.1446 58.7606 77.021C60.0643 76.895 61.2492 76.235 62.483 75.8455C63.4719 75.5329 64.4608 75.2787 65.5056 75.2437C65.5546 75.2414 65.7622 75.2227 65.9115 75.253C67.0217 75.3207 68.0619 75.6402 69.1044 76.032C70.2543 76.4659 71.6303 77.1422 72.8921 77.0186C74.1959 76.8927 75.3807 76.2326 76.6145 75.8431C77.1183 75.6845 77.6221 75.5399 78.1328 75.4326C83.8377 69.0887 87.3105 60.6994 87.3105 51.496C87.3105 31.7179 71.2781 15.6855 51.5 15.6855C31.722 15.6855 15.6896 31.7179 15.6896 51.496C15.6896 60.7157 19.1741 69.119 24.8976 75.4676C25.511 75.6122 26.1104 75.8128 26.7098 76.039C27.8596 76.4775 29.2357 77.1539 30.4975 77.0303Z" fill="#FFDD00"/>
<path d="M64.4701 76.055C62.0235 76.2136 59.8964 77.9185 57.3658 77.8369C56.1833 77.7972 55.0848 77.4614 53.984 77.0462C52.8341 76.6124 51.4557 75.936 50.1916 76.0573C47.7893 76.2882 45.7275 77.9255 43.2319 77.8462C40.7574 77.7646 38.6583 76.1622 36.2047 76.0643C33.7581 76.2229 31.631 77.9278 29.1004 77.8462C28.2818 77.8182 27.5051 77.6246 26.7424 77.3751C28.7156 79.2642 30.9056 80.9272 33.2683 82.3289C34.0169 82.0467 34.7516 81.6596 35.484 81.431C36.4356 81.1324 37.3638 80.9295 38.3597 80.8922C38.3854 80.8922 38.467 80.8922 38.5463 80.9085C39.5725 80.9762 40.5311 81.2747 41.4874 81.6572C42.5672 82.0887 43.78 82.7254 44.9765 82.6811C46.2756 82.6321 47.4954 81.8112 48.7152 81.4286C49.6342 81.1394 50.6161 80.8526 51.591 80.8875C52.6895 80.9272 53.7041 81.2421 54.7163 81.6479C55.7962 82.0817 57.009 82.7161 58.2055 82.6718C59.5046 82.6228 60.7244 81.8042 61.9442 81.424C62.8958 81.1254 63.8217 80.9225 64.8199 80.8852C64.8456 80.8852 64.9272 80.8852 65.0042 80.9015C66.0304 80.9692 66.989 81.2677 67.9476 81.6502C68.5003 81.8718 69.0881 82.1447 69.6898 82.3546C72.5282 80.6776 75.1171 78.6205 77.3818 76.2509C75.4227 76.7383 73.5988 77.9068 71.495 77.8392C69.0228 77.7552 66.9213 76.1552 64.4701 76.055Z" fill="#FFDD00"/>
<path d="M63.4906 81.6661C62.2078 81.7291 60.9973 82.5337 59.7915 82.9116C58.8702 83.2008 57.8883 83.4876 56.9111 83.4527C55.8149 83.413 54.8003 83.0981 53.7881 82.6923C52.7059 82.2585 51.4931 81.6218 50.2943 81.6684C48.9975 81.7174 47.7754 82.5361 46.5579 82.9186C45.6366 83.2078 44.6547 83.497 43.6798 83.4597C41.3335 83.3734 39.386 81.7617 37.063 81.6754L37.0257 81.6731C35.9528 81.7267 34.9313 82.2958 33.9214 82.7017C39.1155 85.6334 45.1119 87.3103 51.5024 87.3103C57.5875 87.3103 63.318 85.7897 68.3371 83.1121C66.7325 82.6107 65.2305 81.7291 63.5279 81.6661H63.4906Z" fill="#FFDD00"/>
<path d="M76.3137 63.1779L73.9697 60.8339C72.7312 61.8601 71.4088 62.8024 70.0164 63.6537L55.9665 40.2488C56.6919 40.1182 57.6458 39.9666 58.1192 39.0454L62.1518 38.4133L62.2428 38.3993L61.844 35.7125L57.5198 36.3889C57.4779 36.3912 57.4382 36.3958 57.3962 36.3982L57.121 35.983L55.6703 36.2606L55.5817 36.6944L54.2149 36.909L53.7298 35.5166C54.005 35.1481 54.2056 34.7189 54.3012 34.2524C54.3432 34.0472 54.3642 33.835 54.3642 33.6181C54.3642 32.3656 53.6365 31.2834 52.5823 30.768C52.2278 30.593 51.836 30.4857 51.4208 30.4554C51.3135 30.4158 51.106 30.3155 51.106 30.3155L50.6558 29.21L50.138 29.3826L50.208 29.8653L49.8278 29.9703L49.8558 30.74C48.7713 31.2437 48.018 32.3423 48.018 33.6157C48.018 34.0799 48.1206 34.516 48.2978 34.9125C48.1136 35.1807 48.0483 35.4629 47.7544 35.5329C46.7492 35.7778 46.7305 34.3761 46.0961 34.46C45.5737 34.53 45.7719 35.4396 45.4734 35.8081C44.7807 34.9218 44.3982 33.7253 43.1224 33.4221V35.323C43.7778 36.4332 45.4291 36.5428 45.5434 38.1917C45.2751 38.4996 44.902 38.7048 44.5405 38.9171C44.0623 38.6372 43.2577 38.5649 42.8122 38.8844C42.453 39.141 42.453 39.6961 42.0869 39.7497C41.9539 39.2156 41.9096 38.5906 41.6717 38.1591C41.5528 38.1684 41.3312 38.3737 41.2216 38.5043C41.4641 39.2413 41.6531 40.0319 41.9143 40.7526C41.7603 41.3357 41.751 41.9491 41.8933 42.4646C42.0262 42.9497 42.2968 43.3462 42.7096 43.5514C43.0291 43.71 43.3906 43.689 43.5049 43.9666L43.5166 44.0062C43.5446 44.0995 43.5446 44.2185 43.5399 44.3327L37.0654 54.4574L36.2211 55.7798L31.5354 63.1103C30.5582 62.4712 29.6183 61.7902 28.7203 61.0625L26.3763 63.4065C32.9885 68.8664 41.688 72.1853 51.2062 72.1853C55.2342 72.1853 59.1128 71.5906 62.7512 70.4897L63.5652 71.4996L71.4391 68.0501L71.2386 66.772C73.0344 65.7108 74.7347 64.5073 76.3137 63.1779ZM63.2084 54.4643H61.8463L57.6458 45.2097L63.2084 54.4643ZM59.1851 54.4643H52.3537V52.0737C52.8529 51.6282 53.1817 50.9006 53.1817 50.0773C53.1817 49.2539 52.8552 48.5286 52.3537 48.0831V46.5205C52.6546 46.3898 52.8389 46.2103 52.8389 46.0143C52.8389 45.8161 52.6523 45.6365 52.3537 45.5082V44.7852C52.5916 44.5823 52.7759 44.3164 52.8855 44.0132H54.4435L59.1851 54.4643ZM53.7438 42.4692H52.7596H49.6436H46.8215L47.2366 41.8185L52.9811 40.7876L53.7438 42.4692ZM50.5555 36.6128L51.022 36.4751L51.5374 37.6087L49.7089 37.9375L50.5555 36.6128ZM45.8326 44.0109H49.513C49.6203 44.3141 49.8069 44.5776 50.0447 44.7829V45.4989C49.7322 45.6295 49.5386 45.8114 49.5386 46.0143C49.5386 46.2173 49.7345 46.3992 50.0447 46.5298V48.0831C49.5433 48.5286 49.2168 49.2563 49.2168 50.0796C49.2168 50.9029 49.5433 51.6306 50.0447 52.076V54.4667H39.1505L45.8326 44.0109ZM50.5392 68.8804C44.1137 68.7685 38.1196 67.0076 33.0281 64.0409L38.3062 55.7844H50.0447V56.6147C50.0447 57.0066 50.2407 57.3518 50.5392 57.5593V68.8804ZM51.1992 51.6562C50.6022 51.6562 50.0984 50.9332 50.0984 50.0773C50.0984 49.2213 50.6022 48.4983 51.1992 48.4983C51.7963 48.4983 52.3001 49.2213 52.3001 50.0773C52.3001 50.9332 51.7963 51.6562 51.1992 51.6562ZM51.8593 68.8804V57.5617C52.1578 57.3518 52.3537 57.0066 52.3537 56.6171V55.7868H59.7845L64.5844 66.3639C60.6638 67.9102 56.3677 68.8011 51.8593 68.8804ZM66.8071 65.3959L62.4457 55.7844H64.0037L69.0718 64.2158C68.3348 64.6333 67.5768 65.0274 66.8071 65.3959Z" fill="#003767"/>
<path d="M70.1562 32.6479L70.8583 29.9541L71.6513 32.5966L74.1748 31.5028L72.3393 33.7138L74.6413 34.8846L72.2483 34.9499L72.9644 37.6834L70.8559 35.4444C70.8559 35.4444 68.8921 37.7487 68.8921 37.6834C68.8921 37.6181 69.5429 34.9499 69.5429 34.9499L66.8887 34.8846L69.3609 33.6742L67.3831 31.3068L70.1562 32.6479Z" fill="#003767"/>
<path d="M78.7392 49.228L79.1381 47.6934L79.5905 49.2L81.0296 48.5773L79.9847 49.8391L81.2978 50.5061L79.9334 50.5435L80.3416 52.1014L79.1404 50.8257C79.1404 50.8257 78.0209 52.1388 78.0209 52.1014C78.0209 52.0641 78.3917 50.5435 78.3917 50.5435L76.8781 50.5061L78.2868 49.8158L77.1603 48.4654L78.7392 49.228Z" fill="#003767"/>
<path d="M25.7162 40.1461L26.1733 38.3945L26.6887 40.1111L28.3284 39.3998L27.1365 40.8388L28.6339 41.6015L27.0782 41.6435L27.5424 43.4184L26.171 41.963C26.171 41.963 24.8952 43.4603 24.8952 43.4184C24.8952 43.3764 25.3173 41.6435 25.3173 41.6435L23.5938 41.6015L25.2007 40.8132L23.9156 39.2738L25.7162 40.1461Z" fill="#003767"/>
</svg>
